<svg width="284" height="284" viewBox="0 0 284 284" fill="none" xmlns="http://www.w3.org/2000/svg">
<rect width="284" height="284" fill="black"/>
<path d="M52.456 117.6V110.56C53.9067 110.389 55.6133 110.219 57.576 110.048C59.624 109.792 61.6293 109.579 63.592 109.408C65.64 109.152 67.3893 108.981 68.84 108.896C70.376 108.725 71.3573 108.683 71.784 108.768C72.552 109.024 73.2773 109.536 73.96 110.304C74.728 110.987 75.4107 111.755 76.008 112.608C76.6053 113.461 76.9467 114.101 77.032 114.528V176.608L96.232 180.96C97.0853 181.131 97.8533 180.96 98.536 180.448C99.2187 179.936 99.816 179.125 100.328 178.016C100.84 176.907 101.267 175.541 101.608 173.92C102.291 170.933 102.717 167.221 102.888 162.784C103.144 158.261 103.272 153.355 103.272 148.064C103.272 143.712 103.059 139.659 102.632 135.904C102.205 132.149 101.565 128.864 100.712 126.048C99.944 123.232 98.92 121.056 97.64 119.52C96.4453 117.984 94.9947 117.301 93.288 117.472L85.48 118.112L87.528 108.64H95.08C98.3227 108.64 101.523 109.28 104.68 110.56C107.837 111.755 110.696 113.803 113.256 116.704C115.901 119.605 117.949 123.531 119.4 128.48C120.936 133.429 121.704 139.616 121.704 147.04C121.704 152.416 121.491 157.067 121.064 160.992C120.637 164.917 119.912 168.416 118.888 171.488C118.547 172.427 117.651 173.621 116.2 175.072C114.835 176.523 113.128 178.101 111.08 179.808C109.032 181.429 106.899 183.008 104.68 184.544C102.547 185.995 100.584 187.189 98.792 188.128C97 189.067 95.6347 189.536 94.696 189.536C91.0267 189.536 87.4853 189.451 84.072 189.28C80.744 189.195 77.5013 188.981 74.344 188.64C71.1867 188.299 68.0293 187.915 64.872 187.488C64.1893 187.317 63.4213 186.891 62.568 186.208C61.8 185.44 61.1173 184.629 60.52 183.776C59.9227 182.923 59.5813 182.283 59.496 181.856V120.16L52.456 117.6ZM85.48 108.64H89.576V173.28C89.576 173.792 89.2773 174.731 88.68 176.096C88.168 177.376 87.4427 178.869 86.504 180.576H82.792V117.856C82.792 117.088 83.048 115.851 83.56 114.144C84.1573 112.437 84.7973 110.603 85.48 108.64ZM153.023 124.256C151.658 124.256 150.548 125.109 149.695 126.816C148.842 128.523 148.159 130.784 147.647 133.6C147.22 136.331 146.922 139.36 146.751 142.688C146.58 146.016 146.495 149.259 146.495 152.416C146.495 157.109 146.964 161.291 147.903 164.96C148.927 168.544 150.506 171.36 152.639 173.408C154.858 175.371 157.716 176.352 161.215 176.352L177.215 176.224V186.08C175.85 186.507 174.058 186.933 171.839 187.36C169.62 187.701 167.359 188 165.055 188.256C162.751 188.597 160.746 188.853 159.039 189.024C157.332 189.195 156.223 189.28 155.711 189.28C149.567 189.28 144.404 187.829 140.223 184.928C136.042 181.941 132.927 177.717 130.879 172.256C128.831 166.795 127.807 160.309 127.807 152.8C127.807 149.387 128.106 146.059 128.703 142.816C129.386 139.573 130.282 136.629 131.391 133.984C132.5 132.619 134.036 131.125 135.999 129.504C138.047 127.797 140.266 126.304 142.655 125.024C145.044 123.744 147.348 123.019 149.567 122.848L153.023 124.256ZM182.335 110.56L179.775 121.952C178.068 122.635 176.148 123.317 174.015 124C171.967 124.683 169.962 125.237 167.999 125.664C166.036 126.091 164.33 126.304 162.879 126.304C160.916 126.304 159.21 126.091 157.759 125.664C156.394 125.237 154.986 124.811 153.535 124.384C152.17 123.957 150.548 123.744 148.671 123.744C148.159 123.744 147.476 123.787 146.623 123.872C145.77 123.957 145.002 124.085 144.319 124.256L144.063 123.488L121.663 121.056L124.095 106.976C129.983 107.829 135.572 108.64 140.863 109.408C146.154 110.176 150.719 110.816 154.559 111.328C158.484 111.755 161.258 111.968 162.879 111.968C164.159 111.968 165.652 111.84 167.359 111.584C169.151 111.328 171.156 110.987 173.375 110.56C175.679 110.048 178.154 109.536 180.799 109.024L182.335 110.56ZM154.047 176.352V117.6H160.831V169.056C160.831 169.568 160.532 170.507 159.935 171.872C159.423 173.152 158.698 174.645 157.759 176.352H154.047ZM204.807 123.744C203.186 123.744 201.82 124.683 200.711 126.56C199.687 128.437 198.876 130.784 198.279 133.6C197.682 136.416 197.255 139.317 196.999 142.304C196.828 145.291 196.743 147.893 196.743 150.112C196.743 155.232 197.212 160.053 198.151 164.576C199.175 169.099 200.882 172.768 203.271 175.584C205.66 178.315 208.946 179.68 213.127 179.68L229.767 179.552V186.208C228.658 186.549 226.951 186.891 224.647 187.232C222.343 187.573 219.911 187.872 217.351 188.128C214.876 188.469 212.658 188.725 210.695 188.896C208.818 189.067 207.623 189.152 207.111 189.152C201.991 189.152 197.724 187.445 194.311 184.032C190.898 180.619 188.338 176.096 186.631 170.464C184.924 164.832 184.071 158.773 184.071 152.288C184.071 147.851 184.37 144.181 184.967 141.28C185.65 138.293 186.631 135.392 187.911 132.576C188.508 131.637 189.447 130.443 190.727 128.992C192.092 127.541 193.756 126.176 195.719 124.896C197.682 123.616 199.858 122.763 202.247 122.336L204.807 123.744ZM234.247 112.352L231.687 122.336C229.81 123.019 227.847 123.659 225.799 124.256C223.751 124.768 221.788 125.195 219.911 125.536C218.034 125.792 216.327 125.92 214.791 125.92C212.658 125.92 210.951 125.707 209.671 125.28C208.391 124.853 207.154 124.427 205.959 124C204.764 123.573 203.186 123.36 201.223 123.36C200.711 123.36 200.156 123.403 199.559 123.488C199.047 123.488 198.535 123.573 198.023 123.744L197.767 122.976L177.799 120.8L180.231 108.64C185.778 109.323 190.812 110.048 195.335 110.816C199.943 111.499 203.911 112.053 207.239 112.48C210.567 112.907 213.042 113.12 214.663 113.12C215.858 113.12 217.266 113.077 218.887 112.992C220.594 112.821 222.599 112.565 224.903 112.224C227.207 111.797 229.81 111.285 232.711 110.688L234.247 112.352ZM205.063 179.936V117.984H211.719V172.64C211.719 173.152 211.506 174.091 211.079 175.456C210.652 176.736 209.97 178.229 209.031 179.936H205.063Z" fill="white"/>
</svg>
