<svg xmlns="http://www.w3.org/2000/svg" fill="none" viewBox="0 0 872 102"><path fill="#000" d="M28 20c-2 0-3 1-4 3l-3 7a71 71 0 0 0-1 16l1 15 5 11c3 2 6 4 10 4h17v6l-5 1a155 155 0 0 1-18 2c-5 0-9-2-13-5-3-3-6-8-8-14a62 62 0 0 1-1-29c1-3 1-6 3-8l3-4 5-4 6-3 3 2ZM57 8l-2 10a95 95 0 0 1-12 4h-5l-5-1-4-1a14 14 0 0 0-7-1l-1 1v-1L1 17 3 5a336 336 0 0 1 35 4 82 82 0 0 0 18-2l1 1ZM28 76V14h7v55l-1 2-2 5h-4Z"/><path fill="#000" d="M55 8V3h1a52 52 0 0 1 6-1h3l2-1 1 1 2 2 1 2v29a383 383 0 0 1 13-9l10 1c3 2 5 4 6 7 2 3 3 8 3 13v33l-2 8-4 8-6 6-4-3 3-6 1-6V47l-2-8-3-3-2-1-4 1a233 233 0 0 0-9 4v36l5 2v5h-2l-4 1a99 99 0 0 1-6 1l-1-1-2-2-1-1V10l-5-2Z"/><path fill="#000" d="m121 56 2 13 5 6 5 1h2a273 273 0 0 1 15-1v6a83 83 0 0 1-17 4h-3c-3 0-7-1-10-3l-8-8c-2-5-3-10-3-16l1-12 2-7 4-4a60 60 0 0 1 15-9c5 0 9 0 12 2 3 1 5 4 6 9 2 4 2 10 2 18l-35 4v-5l23-4-2-12c-1-3-3-5-7-5h-2l-3 1-3 7-1 15Z"/><path fill="#000" d="M185 14V7a172 172 0 0 1 19-2l2 1 2 3 1 2v62l20 4 2-1 2-2 1-4 1-11a262 262 0 0 0 0-27l-2-10-3-6-4-3-8 1 2-9h7c4 0 7 0 10 2l9 6 6 11 2 19-1 14-2 10-3 4a59 59 0 0 1-11 10l-6 3-4 2a213 213 0 0 1-32-4l-2-2-1-2V16l-7-2Zm33-9h4v64l-1 3-2 5h-4V14l1-4 2-5Z"/><path fill="#000" d="m274 56 1 10c1 3 2 5 4 6l4 1a93 93 0 0 0 8 0 3439 3439 0 0 0 11 0v7a114 114 0 0 0-12 3 162 162 0 0 1-10 2c-5 0-9-1-12-3-4-2-7-5-9-9s-3-9-3-15l1-12 3-8 4-4a82 82 0 0 1 17-10c5 0 10 1 13 3 3 1 6 5 7 9 2 4 3 11 3 19l-37 4v-7l20-3-1-11c-1-3-2-5-5-5h-4c-1 1-2 3-2 7l-1 16Z"/><path fill="#000" d="M322 85h-1l-1-1-13-49-5-1v-7l2-1a117 117 0 0 1 15-1l2 2 2 2 6 30 2 10h1l9-35-8-1v-7h2l5-1a125 125 0 0 1 14 0l2 3v2l-16 53h-2a268 268 0 0 1-16 2Z"/><path fill="#000" d="m385 20-3 3-2 7a89 89 0 0 0-1 18l1 13c1 4 3 6 5 8s5 3 8 3h16v10a51 51 0 0 1-12 2 130 130 0 0 1-9 1c-6 0-12-1-16-4s-7-7-9-13a55 55 0 0 1 0-38l5-4 7-5 7-2 3 1Zm29-13-2 11a87 87 0 0 1-17 4h-5a259 259 0 0 0-9-2 22 22 0 0 0-5 0v-1l-22-2 2-14a76822 76822 0 0 1 43 5 128 128 0 0 0 14-3l1 2Zm-28 65V14h7v51l-1 3-2 4h-4Z"/><path fill="#000" d="M441 85c-9 0-17-2-22-6-5-5-7-12-7-21l1-12 2-8 4-4a113 113 0 0 1 14-8l4-2c10 0 17 3 22 7 4 5 7 12 7 21a62 62 0 0 1-3 20l-4 4a122 122 0 0 1-14 8l-4 1Zm0-8 2-1 2-1 2-1a122 122 0 0 0 1-20l-1-11-4-7c-1-2-3-3-6-3h-2l-2 1c-1 0-2 2-2 6l-1 16 1 13 5 6 5 2Z"/><path fill="#000" d="M498 85c-10 0-17-2-22-6-5-5-7-12-7-21V46l3-8 4-4a113 113 0 0 1 13-8l5-2c9 0 16 3 21 7 5 5 7 12 7 21a62 62 0 0 1-3 20l-4 4a122 122 0 0 1-13 8l-4 1Zm0-8 1-1 3-1 1-1a122 122 0 0 0 2-20l-1-11-4-7c-2-2-4-3-7-3h-2l-1 1-3 6-1 16 2 13 4 6 6 2Z"/><path fill="#000" d="m534 85-2-1-2-2-2-2V11l-5-2V3l2-1h4a95 95 0 0 1 11-2l2 1 2 2 1 2v69l5 2v7h-2a108 108 0 0 1-11 2h-3Z"/><path fill="#000" d="M577 85a131 131 0 0 1-19-1h-7l1-21h8l2 10a422 422 0 0 0 15 3l1-3v-2l-1-4-4-3a241 241 0 0 0-16-10c-2-1-4-3-4-5l-1-6v-7a35 35 0 0 1 8-7l4-3 4-2a122 122 0 0 1 11 1 154 154 0 0 1 12 0v18h-9l-1-7-3-1-4-1a99 99 0 0 0-6-1l-1 1-1 1v2l1 4 4 3 5 3a322 322 0 0 1 16 12c2 2 2 4 2 6a29 29 0 0 1-1 7l-3 4a43 43 0 0 1-9 8l-4 1Z"/><path fill="#000" d="m650 20-4 3-2 7a71 71 0 0 0-2 16l2 15 5 11c2 2 6 4 10 4h16v6l-5 1a155 155 0 0 1-17 2c-5 0-10-2-13-5s-6-8-8-14a62 62 0 0 1-1-29c0-3 1-6 3-8l2-4 5-4 7-3 2 2Zm30-12-3 10a95 95 0 0 1-11 4h-6l-5-1-3-1a14 14 0 0 0-7-1l-1 1-1-1-20-2 3-12a336 336 0 0 1 34 4 82 82 0 0 0 18-2l2 1Zm-29 68V14h6v57l-2 5h-4Z"/><path fill="#000" d="m688 85-2-1-2-2-1-2V34l-5-2v-4l1-1a62 62 0 0 1 10-1l2 1 2 2 1 1v47l5 1v5h-2a638 638 0 0 0-9 2Zm-7-79 1-1a99 99 0 0 1 7-5l1 1 3 2 2 3 1 2-1 2-1 2a209 209 0 0 1-6 4l-2-1a29 29 0 0 1-5-7V6Z"/><path fill="#000" d="m711 85-2-1-2-2V34l-5-2v-4l2-1a76 76 0 0 1 10-1h1l2 2 1 2v5a147 147 0 0 1 11-9c4 0 8 0 11 2 3 1 5 3 6 7a531 531 0 0 0 11-9l11 1 7 7 2 13v29l4 2v5h-1a404 404 0 0 0-12 1l-2-2-1-1V47l-1-7c0-2-1-3-2-3l-3-2h-2l-2 1-3 2-3 1-1 1v36l4 2v5h-2a404 404 0 0 0-11 1l-2-2-1-1V47l-2-8c0-2-2-3-3-3l-2-1-3 1a41 41 0 0 0-6 3l-2 1v36l5 2v5h-2a404 404 0 0 0-10 2Z"/><path fill="#000" d="m798 56 2 13 5 6 5 1h2a273 273 0 0 1 14-1v6a83 83 0 0 1-16 4h-3c-4 0-7-1-10-3l-8-8c-2-5-3-10-3-16l1-12 2-7 3-4a60 60 0 0 1 16-9c5 0 8 0 11 2 3 1 6 4 7 9l2 18-36 4v-5l24-4-2-12c-1-3-3-5-7-5h-2l-3 1-3 7-1 15Z"/><path fill="#000" d="M856 85a101 101 0 0 1-11 0 160 160 0 0 1-12-2V65h6l3 10a83 83 0 0 0 13 2l2-1 1-3 1-3-1-4-4-3-7-4-8-5-5-5-1-6a44 44 0 0 1 1-6l2-4a40 40 0 0 1 8-6l3-1a94 94 0 0 1 11 0 132 132 0 0 1 11 1l-1 15h-7l-1-7h-2l-5-1a108 108 0 0 0-7-1l-1 1-1 2v3l1 4 3 3a120 120 0 0 1 10 6l6 4 5 4c2 2 2 4 2 6v3l-1 3-2 4-4 4-5 4-3 1Z"/></svg>